<svg width="50" height="64" viewBox="0 0 50 64" fill="none" xmlns="http://www.w3.org/2000/svg">
<path d="M11.7447 14.5475L9.6481 14.42V56.6962C9.6481 57.2703 9.73411 57.6849 9.90614 57.9401C9.98486 58.0568 10.0703 58.3051 10.5648 58.3051C10.6659 58.3051 10.964 58.3264 11.222 58.3689C11.4801 58.4114 11.7919 58.4858 12.0929 58.6559C12.5875 58.9323 12.8348 59.6447 12.8348 60.7929C12.8348 62.1324 12.5337 62.9511 11.9316 63.2487C11.6091 63.3976 11.3188 63.4933 11.0608 63.5358C10.8242 63.557 10.9734 63.5677 10.5003 63.5677C8.26401 63.5677 6.93871 63.0857 5.77754 62.0863C4.61637 61.087 4.03579 59.3966 4.03579 57.0151V14.42C3.62723 14.4838 3.18642 14.5156 2.71335 14.5156C2.24028 14.5156 1.84247 14.3349 1.51992 13.9734C1.21888 13.612 1.06836 12.9953 1.06836 12.1236C1.06836 11.2518 1.12212 10.6245 1.22963 10.2418C1.33715 9.83778 1.48767 9.55073 1.6812 9.38063C2.02525 9.10421 2.45531 8.966 2.97138 8.966L4.03579 9.09358V5.80844C4.03579 5.31939 4.04654 4.95792 4.06804 4.72402C4.11105 4.49013 4.21856 4.23497 4.39059 3.95856C4.67013 3.42698 5.498 3.16119 6.8742 3.16119C8.33641 3.16119 9.20729 3.55456 9.48683 4.34129C9.59434 4.6815 9.6481 5.2237 9.6481 5.96791V9.09358C10.5942 9.00852 11.3038 8.966 11.7769 8.966C12.2715 8.966 12.637 8.98726 12.8736 9.02979C13.1316 9.05105 13.4219 9.14673 13.7444 9.31684C14.3035 9.59326 14.5831 10.4119 14.5831 11.7727C14.5831 13.1123 14.2928 13.9309 13.7122 14.2286C13.3896 14.3774 13.0993 14.4731 12.8413 14.5156C12.6048 14.5369 12.2392 14.5475 11.7447 14.5475Z" fill="#4C4C4C"/>
<path d="M18.0835 11.7089C18.0835 11.2199 18.0942 10.8584 18.1157 10.6245C18.1587 10.3694 18.2555 10.0823 18.406 9.76336C18.7071 9.21052 19.5457 8.9341 20.9219 8.9341C21.954 8.9341 22.6851 9.11484 23.1152 9.47631C23.4808 9.77399 23.6743 10.2311 23.6958 10.8478C23.7173 11.0604 23.728 11.3687 23.728 11.7727V22.9358C23.728 23.4249 23.7065 23.797 23.6635 24.0521C23.642 24.286 23.5453 24.5624 23.3732 24.8814C23.0937 25.4342 22.2658 25.7106 20.8896 25.7106C19.5349 25.7106 18.7071 25.4236 18.406 24.8495C18.2555 24.5305 18.1587 24.2541 18.1157 24.0202C18.0942 23.7863 18.0835 23.4142 18.0835 22.9039V11.7089ZM23.3732 5.80844C23.2227 6.10612 22.9432 6.31875 22.5346 6.44633C22.1261 6.57391 21.5777 6.6377 20.8896 6.6377C20.223 6.6377 19.6855 6.57391 19.2769 6.44633C18.8683 6.31875 18.578 6.09549 18.406 5.77654C18.2555 5.4576 18.1587 5.18118 18.1157 4.94729C18.0942 4.69213 18.0835 4.32003 18.0835 3.83098C18.0835 3.34193 18.0942 2.98046 18.1157 2.74656C18.1587 2.49141 18.2555 2.21499 18.406 1.91731C18.7071 1.3432 19.5457 1.05615 20.9219 1.05615C22.2766 1.05615 23.0937 1.3432 23.3732 1.91731C23.5453 2.23625 23.642 2.5233 23.6635 2.77846C23.7065 3.01235 23.728 3.37382 23.728 3.86287C23.728 4.35192 23.7065 4.72402 23.6635 4.97918C23.642 5.21307 23.5453 5.48949 23.3732 5.80844Z" fill="#4C4C4C"/>
<path d="M31.5595 17.2863C31.5595 18.1794 31.8605 18.881 32.4626 19.3914C33.0647 19.8804 33.6991 20.1249 34.3657 20.1249C35.0538 20.1249 35.6881 19.9336 36.2687 19.5508C36.8708 19.1468 37.3546 18.9448 37.7201 18.9448C38.3652 18.9448 39.1501 19.5083 40.0747 20.6352C40.5693 21.2519 40.8166 21.8047 40.8166 22.2938C40.8166 23.1018 40.2253 23.8566 39.0426 24.5583C37.8169 25.4088 36.3117 25.8341 34.5269 25.8341C32.5271 25.8341 30.6026 25.1217 28.7533 23.6971C27.8717 23.0167 27.1514 22.113 26.5923 20.9861C26.0332 19.8379 25.7537 18.5834 25.7537 17.2225C25.7537 15.8404 26.0332 14.5965 26.5923 13.4909C27.1514 12.3639 27.8717 11.4602 28.7533 10.7798C30.5381 9.37647 32.4411 8.67479 34.4624 8.67479C35.2795 8.67479 36.0752 8.79174 36.8493 9.02563C37.6234 9.23826 38.1932 9.45089 38.5588 9.66352L39.0748 9.98247C39.4619 10.2376 39.7629 10.4396 39.978 10.5885C40.537 11.0137 40.8166 11.5028 40.8166 12.0556C40.8166 12.5872 40.5908 13.1932 40.1392 13.8736C39.3651 15.0431 38.6233 15.6278 37.9137 15.6278C37.5051 15.6278 36.9245 15.3939 36.1719 14.9261C35.7849 14.5647 35.2258 14.3839 34.4947 14.3839C33.7851 14.3839 33.1185 14.6391 32.4949 15.1494C31.8713 15.6597 31.5595 16.372 31.5595 17.2863Z" fill="#4C4C4C"/>
<path d="M24.9014 29.6257C25.0304 28.435 25.8798 27.8396 27.4495 27.8396C28.2882 27.8396 28.9118 27.9034 29.3203 28.031C29.7289 28.1585 30.0084 28.3818 30.1589 28.7007C30.331 29.0197 30.4277 29.3067 30.4492 29.5619C30.4922 29.7958 30.5137 30.1573 30.5137 30.6463V41.8094C30.5137 42.2984 30.4922 42.6705 30.4492 42.9257C30.4277 43.1596 30.3417 43.436 30.1912 43.755C29.8901 44.3078 29.1483 44.5842 27.9656 44.5842C26.8045 44.5842 26.0196 44.446 25.611 44.1696C25.224 43.8719 24.9982 43.4466 24.9337 42.8938C24.1381 44.0207 22.8049 44.5842 20.9341 44.5842C19.0848 44.5842 17.3646 43.7443 15.7734 42.0645C14.1821 40.3848 13.3865 38.4392 13.3865 36.2278C13.3865 33.9952 14.1821 32.0497 15.7734 30.3911C17.3861 28.7114 19.1493 27.8715 21.0631 27.8715C21.7942 27.8715 22.4608 27.9991 23.0629 28.2542C23.665 28.5094 24.0843 28.7539 24.3208 28.9878C24.5574 29.2004 24.7509 29.413 24.9014 29.6257ZM19.0311 36.2597C19.0311 36.9614 19.3106 37.5993 19.8697 38.1734C20.4288 38.7263 21.1061 39.0027 21.9017 39.0027C22.6974 39.0027 23.3532 38.7156 23.8693 38.1415C24.4069 37.5674 24.6756 36.9402 24.6756 36.2597C24.6756 35.5581 24.4176 34.9095 23.9015 34.3142C23.407 33.7188 22.7296 33.4211 21.8695 33.4211C21.0309 33.4211 20.3428 33.7188 19.8052 34.3142C19.2891 34.9095 19.0311 35.5581 19.0311 36.2597Z" fill="#4C4C4C"/>
<path d="M38.3183 36.244C38.3183 37.137 38.6193 37.8387 39.2214 38.349C39.8235 38.8381 40.4578 39.0826 41.1244 39.0826C41.8125 39.0826 42.4469 38.8912 43.0275 38.5085C43.6295 38.1045 44.1134 37.9025 44.4789 37.9025C45.124 37.9025 45.9089 38.466 46.8335 39.5929C47.3281 40.2095 47.5754 40.7624 47.5754 41.2514C47.5754 42.0594 46.984 42.8142 45.8014 43.5159C44.5757 44.3664 43.0705 44.7917 41.2857 44.7917C39.2859 44.7917 37.3614 44.0794 35.5121 42.6548C34.6305 41.9744 33.9101 41.0707 33.3511 39.9437C32.792 38.7955 32.5124 37.541 32.5124 36.1802C32.5124 34.7981 32.792 33.5542 33.3511 32.4485C33.9101 31.3216 34.6305 30.4179 35.5121 29.7375C37.2969 28.3341 39.1999 27.6324 41.2212 27.6324C42.0383 27.6324 42.8339 27.7494 43.608 27.9833C44.3822 28.1959 44.952 28.4085 45.3175 28.6212L45.8336 28.9401C46.2207 29.1953 46.5217 29.3973 46.7367 29.5461C47.2958 29.9714 47.5754 30.4604 47.5754 31.0133C47.5754 31.5448 47.3496 32.1508 46.898 32.8313C46.1239 34.0007 45.3821 34.5855 44.6724 34.5855C44.2639 34.5855 43.6833 34.3516 42.9307 33.8838C42.5436 33.5223 41.9846 33.3416 41.2535 33.3416C40.5439 33.3416 39.8773 33.5967 39.2537 34.107C38.6301 34.6173 38.3183 35.3297 38.3183 36.244Z" fill="#4C4C4C"/>
<path d="M13.3865 55.1971C13.3865 52.6456 14.2896 50.5405 16.0959 48.882C17.9022 47.2235 19.9665 46.3942 22.2888 46.3942C24.6111 46.3942 26.6647 47.2235 28.4494 48.882C30.2342 50.5193 31.1266 52.6137 31.1266 55.1652C31.1266 56.9301 30.6643 58.5035 29.7396 59.8856C28.815 61.2465 27.6861 62.2564 26.3529 62.9156C25.0412 63.5535 23.6758 63.8724 22.2565 63.8724C20.8373 63.8724 19.4611 63.5322 18.1279 62.8518C16.7948 62.1501 15.6658 61.1295 14.7412 59.7899C13.8381 58.4291 13.3865 56.8982 13.3865 55.1971ZM20.1277 57.4935C20.8158 58.0038 21.5147 58.259 22.2243 58.259C22.9339 58.259 23.6435 57.9932 24.3531 57.4616C25.0627 56.9301 25.4175 56.1433 25.4175 55.1014C25.4175 54.0595 25.0842 53.2834 24.4176 52.7731C23.751 52.2628 23.0307 52.0077 22.2565 52.0077C21.4824 52.0077 20.7621 52.2735 20.0955 52.805C19.4289 53.3366 19.0956 54.1233 19.0956 55.1652C19.0956 56.1858 19.4396 56.962 20.1277 57.4935Z" fill="#4C4C4C"/>
<path d="M50 53.1878C50 54.4848 49.6667 55.4523 49.0001 56.0902C48.355 56.7068 47.6347 57.0151 46.839 57.0151H39.1947C39.1947 57.6105 39.5495 58.1102 40.2591 58.5141C40.9687 58.9181 41.6783 59.1201 42.3879 59.1201C43.6351 59.1201 44.6135 58.9926 45.3231 58.7374L45.6779 58.6098C46.194 58.3759 46.624 58.259 46.9681 58.259C47.6562 58.259 48.2475 58.7374 48.7421 59.6942C49.0216 60.2683 49.1614 60.7574 49.1614 61.1614C49.1614 63.0538 46.8713 64 42.2911 64C40.6999 64 39.2807 63.7342 38.0335 63.2027C36.8078 62.6498 35.851 61.9269 35.1629 61.0338C33.8082 59.3115 33.1308 57.3872 33.1308 55.2609C33.1308 52.5818 34.0017 50.4448 35.7434 48.8501C37.5067 47.2341 39.7 46.4261 42.3234 46.4261C45.3123 46.4261 47.5056 47.468 48.9033 49.5518C49.6344 50.6575 50 51.8695 50 53.1878ZM43.1943 54.1127C44.0114 54.1127 44.4199 53.7725 44.4199 53.0921C44.4199 52.603 44.2264 52.2097 43.8394 51.912C43.4738 51.6143 42.9362 51.4655 42.2266 51.4655C41.5385 51.4655 40.8504 51.7525 40.1623 52.3266C39.4742 52.9007 39.1302 53.4748 39.1302 54.1127H43.1943Z" fill="#4C4C4C"/>
<path d="M10.6763 13.4914L8.57974 13.3638V55.64C8.57974 56.2141 8.66575 56.6287 8.83778 56.8839C8.9165 57.0007 9.00191 57.2489 9.49648 57.2489C9.59751 57.2489 9.89563 57.2702 10.1537 57.3127C10.4117 57.3553 10.7235 57.4297 11.0245 57.5998C11.5191 57.8762 11.7664 58.5885 11.7664 59.7367C11.7664 61.0763 11.4654 61.8949 10.8633 62.1926C10.5407 62.3414 10.2504 62.4371 9.9924 62.4796C9.75586 62.5009 9.90504 62.5115 9.43197 62.5115C7.19565 62.5115 5.87035 62.0295 4.70918 61.0302C3.54801 60.0308 2.96743 58.3404 2.96743 55.959V13.3638C2.55887 13.4276 2.11806 13.4595 1.64499 13.4595C1.17192 13.4595 0.774112 13.2788 0.451565 12.9173C0.150522 12.5558 0 11.9392 0 11.0674C0 10.1956 0.0537578 9.56836 0.161273 9.18563C0.268789 8.78163 0.419311 8.49458 0.612839 8.32447C0.956888 8.04805 1.38695 7.90984 1.90302 7.90984L2.96743 8.03742V4.75229C2.96743 4.26324 2.97818 3.90177 2.99968 3.66787C3.04269 3.43398 3.15021 3.17882 3.32223 2.9024C3.60177 2.37083 4.42964 2.10504 5.80584 2.10504C7.26805 2.10504 8.13893 2.49841 8.41847 3.28514C8.52598 3.62535 8.57974 4.16755 8.57974 4.91176V8.03742C9.52588 7.95237 10.2355 7.90984 10.7085 7.90984C11.2031 7.90984 11.5687 7.93111 11.8052 7.97363C12.0632 7.9949 12.3535 8.09058 12.6761 8.26069C13.2352 8.5371 13.5147 9.35573 13.5147 10.7166C13.5147 12.0561 13.2244 12.8748 12.6438 13.1724C12.3213 13.3213 12.031 13.417 11.773 13.4595C11.5364 13.4808 11.1709 13.4914 10.6763 13.4914Z" fill="white"/>
<path d="M17.0151 10.6528C17.0151 10.1637 17.0259 9.80225 17.0474 9.56836C17.0904 9.3132 17.1871 9.02615 17.3377 8.70721C17.6387 8.15437 18.4773 7.87795 19.8535 7.87795C20.8857 7.87795 21.6168 8.05869 22.0468 8.42016C22.4124 8.71784 22.6059 9.175 22.6274 9.79162C22.6489 10.0043 22.6597 10.3126 22.6597 10.7166V21.8796C22.6597 22.3687 22.6382 22.7408 22.5952 22.996C22.5737 23.2299 22.4769 23.5063 22.3049 23.8252C22.0253 24.3781 21.1975 24.6545 19.8213 24.6545C18.4666 24.6545 17.6387 24.3674 17.3377 23.7933C17.1871 23.4744 17.0904 23.198 17.0474 22.9641C17.0259 22.7302 17.0151 22.3581 17.0151 21.8478V10.6528ZM22.3049 4.75229C22.1544 5.04997 21.8748 5.2626 21.4663 5.39018C21.0577 5.51775 20.5094 5.58154 19.8213 5.58154C19.1547 5.58154 18.6171 5.51775 18.2085 5.39018C17.8 5.2626 17.5097 5.03934 17.3377 4.72039C17.1871 4.40145 17.0904 4.12503 17.0474 3.89113C17.0259 3.63598 17.0151 3.26387 17.0151 2.77482C17.0151 2.28578 17.0259 1.9243 17.0474 1.69041C17.0904 1.43525 17.1871 1.15883 17.3377 0.861153C17.6387 0.287051 18.4773 0 19.8535 0C21.2082 0 22.0253 0.287051 22.3049 0.861153C22.4769 1.1801 22.5737 1.46715 22.5952 1.72231C22.6382 1.9562 22.6597 2.31767 22.6597 2.80672C22.6597 3.29577 22.6382 3.66787 22.5952 3.92303C22.5737 4.15692 22.4769 4.43334 22.3049 4.75229Z" fill="white"/>
<path d="M30.4911 16.2302C30.4911 17.1232 30.7922 17.8249 31.3943 18.3352C31.9964 18.8243 32.6307 19.0688 33.2973 19.0688C33.9854 19.0688 34.6197 18.8774 35.2003 18.4947C35.8024 18.0907 36.2862 17.8887 36.6518 17.8887C37.2969 17.8887 38.0817 18.4522 39.0064 19.5791C39.5009 20.1957 39.7482 20.7486 39.7482 21.2376C39.7482 22.0456 39.1569 22.8004 37.9742 23.5021C36.7486 24.3526 35.2433 24.7779 33.4586 24.7779C31.4588 24.7779 29.5343 24.0656 27.685 22.641C26.8034 21.9605 26.083 21.0569 25.5239 19.9299C24.9648 18.7817 24.6853 17.5272 24.6853 16.1664C24.6853 14.7843 24.9648 13.5404 25.5239 12.4347C26.083 11.3078 26.8034 10.4041 27.685 9.72368C29.4697 8.32032 31.3728 7.61864 33.3941 7.61864C34.2112 7.61864 35.0068 7.73559 35.7809 7.96948C36.555 8.18211 37.1249 8.39474 37.4904 8.60737L38.0065 8.92632C38.3935 9.18147 38.6946 9.38347 38.9096 9.53231C39.4687 9.95757 39.7482 10.4466 39.7482 10.9995C39.7482 11.531 39.5225 12.137 39.0709 12.8175C38.2968 13.9869 37.5549 14.5716 36.8453 14.5716C36.4368 14.5716 35.8562 14.3378 35.1036 13.87C34.7165 13.5085 34.1574 13.3278 33.4263 13.3278C32.7167 13.3278 32.0501 13.5829 31.4265 14.0932C30.8029 14.6035 30.4911 15.3159 30.4911 16.2302Z" fill="white"/>
<path d="M23.8331 28.5695C23.9621 27.3788 24.8115 26.7834 26.3812 26.7834C27.2198 26.7834 27.8434 26.8472 28.252 26.9748C28.6605 27.1024 28.9401 27.3256 29.0906 27.6446C29.2626 27.9635 29.3594 28.2506 29.3809 28.5057C29.4239 28.7396 29.4454 29.1011 29.4454 29.5902V40.7532C29.4454 41.2423 29.4239 41.6144 29.3809 41.8695C29.3594 42.1034 29.2734 42.3799 29.1228 42.6988C28.8218 43.2516 28.0799 43.5281 26.8973 43.5281C25.7361 43.5281 24.9512 43.3899 24.5427 43.1134C24.1556 42.8158 23.9298 42.3905 23.8653 41.8377C23.0697 42.9646 21.7365 43.5281 19.8657 43.5281C18.0165 43.5281 16.2962 42.6882 14.705 41.0084C13.1138 39.3286 12.3182 37.383 12.3182 35.1717C12.3182 32.9391 13.1138 30.9935 14.705 29.335C16.3177 27.6552 18.081 26.8153 19.9948 26.8153C20.7259 26.8153 21.3925 26.9429 21.9946 27.1981C22.5966 27.4532 23.0159 27.6977 23.2525 27.9316C23.489 28.1443 23.6825 28.3569 23.8331 28.5695ZM17.9627 35.2036C17.9627 35.9053 18.2423 36.5432 18.8013 37.1173C19.3604 37.6701 20.0378 37.9465 20.8334 37.9465C21.629 37.9465 22.2848 37.6595 22.8009 37.0854C23.3385 36.5113 23.6073 35.884 23.6073 35.2036C23.6073 34.5019 23.3492 33.8534 22.8332 33.258C22.3386 32.6627 21.6613 32.365 20.8011 32.365C19.9625 32.365 19.2744 32.6627 18.7368 33.258C18.2208 33.8534 17.9627 34.5019 17.9627 35.2036Z" fill="white"/>
<path d="M37.2499 35.1878C37.2499 36.0809 37.551 36.7825 38.1531 37.2929C38.7551 37.7819 39.3895 38.0264 40.0561 38.0264C40.7442 38.0264 41.3785 37.8351 41.9591 37.4523C42.5612 37.0483 43.045 36.8463 43.4106 36.8463C44.0557 36.8463 44.8405 37.4098 45.7652 38.5367C46.2597 39.1534 46.507 39.7062 46.507 40.1953C46.507 41.0033 45.9157 41.7581 44.733 42.4598C43.5073 43.3103 42.0021 43.7356 40.2174 43.7356C38.2176 43.7356 36.293 43.0232 34.4438 41.5986C33.5621 40.9182 32.8418 40.0145 32.2827 38.8876C31.7236 37.7394 31.4441 36.4849 31.4441 35.124C31.4441 33.7419 31.7236 32.498 32.2827 31.3924C32.8418 30.2654 33.5621 29.3618 34.4438 28.6813C36.2285 27.278 38.1315 26.5763 40.1528 26.5763C40.97 26.5763 41.7656 26.6932 42.5397 26.9271C43.3138 27.1398 43.8836 27.3524 44.2492 27.565L44.7653 27.884C45.1523 28.1391 45.4534 28.3411 45.6684 28.49C46.2275 28.9152 46.507 29.4043 46.507 29.9571C46.507 30.4887 46.2812 31.0947 45.8297 31.7751C45.0556 32.9446 44.3137 33.5293 43.6041 33.5293C43.1955 33.5293 42.6149 33.2954 41.8623 32.8276C41.4753 32.4662 40.9162 32.2854 40.1851 32.2854C39.4755 32.2854 38.8089 32.5406 38.1853 33.0509C37.5617 33.5612 37.2499 34.2735 37.2499 35.1878Z" fill="white"/>
<path d="M12.3182 54.141C12.3182 51.5894 13.2213 49.4844 15.0275 47.8258C16.8338 46.1673 18.8981 45.3381 21.2204 45.3381C23.5428 45.3381 25.5963 46.1673 27.3811 47.8258C29.1658 49.4631 30.0582 51.5575 30.0582 54.1091C30.0582 55.8739 29.5959 57.4474 28.6713 58.8295C27.7466 60.1903 26.6177 61.2003 25.2845 61.8594C23.9728 62.4973 22.6074 62.8163 21.1882 62.8163C19.769 62.8163 18.3928 62.4761 17.0596 61.7957C15.7264 61.094 14.5975 60.0733 13.6728 58.7338C12.7697 57.3729 12.3182 55.842 12.3182 54.141ZM19.0594 56.4374C19.7475 56.9477 20.4463 57.2028 21.1559 57.2028C21.8655 57.2028 22.5751 56.9371 23.2847 56.4055C23.9943 55.8739 24.3491 55.0872 24.3491 54.0453C24.3491 53.0034 24.0158 52.2273 23.3492 51.717C22.6827 51.2067 21.9623 50.9515 21.1882 50.9515C20.4141 50.9515 19.6937 51.2173 19.0271 51.7489C18.3605 52.2804 18.0272 53.0672 18.0272 54.1091C18.0272 55.1297 18.3713 55.9058 19.0594 56.4374Z" fill="white"/>
<path d="M48.9316 52.1316C48.9316 53.4287 48.5983 54.3961 47.9317 55.034C47.2867 55.6506 46.5663 55.959 45.7707 55.959H38.1263C38.1263 56.5543 38.4811 57.054 39.1907 57.458C39.9003 57.862 40.6099 58.064 41.3195 58.064C42.5667 58.064 43.5451 57.9364 44.2547 57.6813L44.6095 57.5537C45.1256 57.3198 45.5557 57.2028 45.8997 57.2028C46.5878 57.2028 47.1791 57.6813 47.6737 58.6381C47.9532 59.2122 48.093 59.7012 48.093 60.1052C48.093 61.9977 45.8029 62.9439 41.2228 62.9439C39.6316 62.9439 38.2123 62.6781 36.9652 62.1465C35.7395 61.5937 34.7826 60.8707 34.0945 59.9777C32.7398 58.2554 32.0625 56.3311 32.0625 54.2048C32.0625 51.5256 32.9333 49.3887 34.6751 47.794C36.4383 46.178 38.6317 45.37 41.255 45.37C44.244 45.37 46.4373 46.4119 47.835 48.4956C48.5661 49.6013 48.9316 50.8133 48.9316 52.1316ZM42.1259 53.0566C42.943 53.0566 43.3516 52.7163 43.3516 52.0359C43.3516 51.5469 43.1581 51.1535 42.771 50.8558C42.4055 50.5581 41.8679 50.4093 41.1583 50.4093C40.4702 50.4093 39.7821 50.6964 39.094 51.2705C38.4059 51.8446 38.0618 52.4187 38.0618 53.0566H42.1259Z" fill="white"/>
</svg>
