<svg width="160" height="206" viewBox="0 0 160 206" fill="none" xmlns="http://www.w3.org/2000/svg">
<path d="M37.5829 46.8248L30.874 46.4141V182.491C30.874 184.339 31.1492 185.673 31.6997 186.494C31.9516 186.87 32.2249 187.669 33.8075 187.669C34.1308 187.669 35.0848 187.738 35.9106 187.875C36.7363 188.012 37.734 188.251 38.6974 188.799C40.28 189.688 41.0713 191.981 41.0713 195.677C41.0713 199.989 40.108 202.624 38.1813 203.582C37.1491 204.061 36.2202 204.369 35.3945 204.506C34.6376 204.574 35.1149 204.608 33.6011 204.608C26.4449 204.608 22.2039 203.057 18.4882 199.84C14.7725 196.624 12.9146 191.183 12.9146 183.517V46.4141C11.6072 46.6194 10.1966 46.7221 8.68278 46.7221C7.16896 46.7221 5.89598 46.1404 4.86383 44.9769C3.90049 43.8134 3.41882 41.8286 3.41882 39.0225C3.41882 36.2165 3.59085 34.1975 3.9349 32.9656C4.27895 31.6652 4.76062 30.7413 5.37991 30.1937C6.48086 29.304 7.85706 28.8591 9.5085 28.8591L12.9146 29.2698V18.6958C12.9146 17.1216 12.949 15.9581 13.0178 15.2053C13.1554 14.4524 13.4995 13.6312 14.05 12.7414C14.9445 11.0304 17.5937 10.1749 21.9975 10.1749C26.6766 10.1749 29.4634 11.4411 30.3579 13.9734C30.702 15.0684 30.874 16.8136 30.874 19.2091V29.2698C33.9016 28.996 36.1723 28.8591 37.6862 28.8591C39.2688 28.8591 40.4386 28.9276 41.1955 29.0645C42.0212 29.1329 42.9501 29.4409 43.9823 29.9884C45.7713 30.8781 46.6659 33.5131 46.6659 37.8933C46.6659 42.205 45.7369 44.84 43.8791 45.7981C42.8469 46.2772 41.918 46.5852 41.0922 46.7221C40.3353 46.7905 39.1656 46.8248 37.5829 46.8248Z" fill="#4C4C4C"/>
<path d="M57.8672 37.688C57.8672 36.1138 57.9016 34.9503 57.9704 34.1975C58.108 33.3762 58.4176 32.4523 58.8993 31.4257C59.8626 29.6462 62.5462 28.7565 66.9501 28.7565C70.2529 28.7565 72.5925 29.3382 73.9687 30.5017C75.1384 31.4599 75.7577 32.9314 75.8265 34.9161C75.8954 35.6005 75.9298 36.5929 75.9298 37.8933V73.8245C75.9298 75.3986 75.861 76.5963 75.7233 77.4176C75.6545 78.1705 75.3449 79.0602 74.7944 80.0868C73.8999 81.8662 71.2507 82.756 66.8469 82.756C62.5118 82.756 59.8626 81.832 58.8993 79.9841C58.4176 78.9575 58.108 78.0678 57.9704 77.3149C57.9016 76.5621 57.8672 75.3644 57.8672 73.7218V37.688ZM74.7944 18.6958C74.3127 19.6539 73.4182 20.3383 72.1108 20.749C70.8034 21.1596 69.0488 21.3649 66.8469 21.3649C64.7138 21.3649 62.9935 21.1596 61.6861 20.749C60.3787 20.3383 59.4498 19.6197 58.8993 18.5931C58.4176 17.5665 58.108 16.6768 57.9704 15.9239C57.9016 15.1026 57.8672 13.9049 57.8672 12.3308C57.8672 10.7567 57.9016 9.59318 57.9704 8.84034C58.108 8.01905 58.4176 7.12932 58.8993 6.17116C59.8626 4.32327 62.5462 3.39932 66.9501 3.39932C71.2851 3.39932 73.8999 4.32327 74.7944 6.17116C75.3449 7.19777 75.6545 8.12171 75.7233 8.943C75.861 9.69584 75.9298 10.8593 75.9298 12.4335C75.9298 14.0076 75.861 15.2053 75.7233 16.0266C75.6545 16.7794 75.3449 17.6691 74.7944 18.6958Z" fill="#4C4C4C"/>
<path d="M100.99 55.6402C100.99 58.5147 101.954 60.7732 103.88 62.4158C105.807 63.9899 107.837 64.777 109.97 64.777C112.172 64.777 114.202 64.161 116.06 62.9291C117.986 61.6287 119.535 60.9785 120.704 60.9785C122.769 60.9785 125.28 62.7922 128.239 66.4196C129.822 68.4043 130.613 70.1838 130.613 71.7579C130.613 74.3586 128.721 76.7883 124.936 79.0468C121.014 81.7844 116.197 83.1532 110.486 83.1532C104.087 83.1532 97.9284 80.8605 92.0107 76.275C89.1895 74.0849 86.8844 71.1762 85.0954 67.5488C83.3063 63.853 82.4118 59.8151 82.4118 55.4349C82.4118 50.9862 83.3063 46.9825 85.0954 43.4236C86.8844 39.7962 89.1895 36.8875 92.0107 34.6974C97.722 30.1804 103.812 27.9218 110.28 27.9218C112.895 27.9218 115.441 28.2983 117.918 29.0511C120.395 29.7355 122.218 30.4199 123.388 31.1043L125.04 32.1309C126.278 32.9522 127.241 33.6024 127.93 34.0815C129.719 35.4503 130.613 37.0244 130.613 38.8039C130.613 40.5149 129.891 42.4654 128.446 44.6555C125.968 48.4197 123.594 50.3018 121.324 50.3018C120.016 50.3018 118.159 49.549 115.75 48.0433C114.512 46.8798 112.723 46.2981 110.383 46.2981C108.112 46.2981 105.979 47.1194 103.984 48.7619C101.988 50.4045 100.99 52.6973 100.99 55.6402Z" fill="#4C4C4C"/>
<path d="M79.6846 95.3575C80.0975 91.5249 82.8155 89.6086 87.8386 89.6086C90.5222 89.6086 92.5177 89.8139 93.825 90.2245C95.1324 90.6352 96.027 91.3538 96.5086 92.3804C97.0591 93.407 97.3688 94.3309 97.4376 95.1522C97.5752 95.9051 97.644 97.0686 97.644 98.6427V134.574C97.644 136.148 97.5752 137.346 97.4376 138.167C97.3688 138.92 97.0935 139.81 96.6118 140.836C95.6485 142.616 93.2746 143.505 89.49 143.505C85.7743 143.505 83.2627 143.06 81.9553 142.171C80.7168 141.213 79.9942 139.844 79.7878 138.064C77.2419 141.692 72.9756 143.505 66.9892 143.505C61.0715 143.505 55.5667 140.802 50.4748 135.395C45.3829 129.988 42.8369 123.726 42.8369 116.608C42.8369 109.422 45.3829 103.16 50.4748 97.8214C55.6355 92.4146 61.278 89.7112 67.402 89.7112C69.7416 89.7112 71.8747 90.1219 73.8014 90.9431C75.728 91.7644 77.0698 92.5515 77.8267 93.3043C78.5836 93.9887 79.2029 94.6731 79.6846 95.3575ZM60.8995 116.711C60.8995 118.969 61.794 121.023 63.5831 122.871C65.3721 124.65 67.5396 125.54 70.0856 125.54C72.6316 125.54 74.7303 124.616 76.3817 122.768C78.102 120.92 78.9621 118.901 78.9621 116.711C78.9621 114.452 78.1364 112.365 76.4849 110.449C74.9023 108.532 72.7348 107.574 69.9824 107.574C67.2988 107.574 65.0969 108.532 63.3766 110.449C61.7252 112.365 60.8995 114.452 60.8995 116.711Z" fill="#4C4C4C"/>
<path d="M122.619 116.66C122.619 119.535 123.582 121.793 125.509 123.436C127.435 125.01 129.465 125.797 131.598 125.797C133.8 125.797 135.83 125.181 137.688 123.949C139.615 122.649 141.163 121.999 142.333 121.999C144.397 121.999 146.908 123.812 149.867 127.44C151.45 129.424 152.241 131.204 152.241 132.778C152.241 135.379 150.349 137.808 146.564 140.067C142.642 142.804 137.826 144.173 132.114 144.173C125.715 144.173 119.556 141.88 113.639 137.295C110.818 135.105 108.512 132.196 106.723 128.569C104.934 124.873 104.04 120.835 104.04 116.455C104.04 112.006 104.934 108.002 106.723 104.444C108.512 100.816 110.818 97.9075 113.639 95.7174C119.35 91.2004 125.44 88.9418 131.908 88.9418C134.523 88.9418 137.069 89.3182 139.546 90.0711C142.023 90.7555 143.846 91.4399 145.016 92.1243L146.668 93.1509C147.906 93.9722 148.869 94.6224 149.558 95.1015C151.347 96.4703 152.241 98.0444 152.241 99.8238C152.241 101.535 151.519 103.485 150.074 105.675C147.597 109.44 145.223 111.322 142.952 111.322C141.644 111.322 139.787 110.569 137.378 109.063C136.14 107.9 134.351 107.318 132.011 107.318C129.74 107.318 127.607 108.139 125.612 109.782C123.616 111.424 122.619 113.717 122.619 116.66Z" fill="#4C4C4C"/>
<path d="M42.8369 177.666C42.8369 169.453 45.7269 162.677 51.5069 157.339C57.287 152.001 63.8927 149.331 71.3242 149.331C78.7557 149.331 85.327 152.001 91.0382 157.339C96.7495 162.609 99.6051 169.35 99.6051 177.563C99.6051 183.244 98.1257 188.308 95.1668 192.757C92.208 197.137 88.5955 200.388 84.3293 202.51C80.1319 204.563 75.7624 205.589 71.221 205.589C66.6795 205.589 62.2757 204.494 58.0095 202.304C53.7433 200.046 50.1307 196.761 47.1719 192.449C44.2819 188.069 42.8369 183.141 42.8369 177.666ZM64.4088 185.057C66.6107 186.7 68.847 187.521 71.1178 187.521C73.3885 187.521 75.6592 186.666 77.9299 184.955C80.2007 183.244 81.336 180.711 81.336 177.358C81.336 174.004 80.2695 171.506 78.1364 169.863C76.0033 168.221 73.6981 167.4 71.221 167.4C68.7438 167.4 66.4387 168.255 64.3056 169.966C62.1725 171.677 61.1059 174.209 61.1059 177.563C61.1059 180.848 62.2069 183.346 64.4088 185.057Z" fill="#4C4C4C"/>
<path d="M160 171.198C160 175.373 158.933 178.487 156.8 180.54C154.736 182.525 152.431 183.517 149.885 183.517H125.423C125.423 185.434 126.558 187.042 128.829 188.342C131.1 189.643 133.371 190.293 135.641 190.293C139.632 190.293 142.763 189.882 145.034 189.061L146.169 188.65C147.821 187.898 149.197 187.521 150.298 187.521C152.5 187.521 154.392 189.061 155.975 192.141C156.869 193.989 157.316 195.563 157.316 196.863C157.316 202.954 149.988 206 135.332 206C130.24 206 125.698 205.144 121.707 203.433C117.785 201.654 114.723 199.327 112.521 196.453C108.186 190.909 106.019 184.715 106.019 177.871C106.019 169.247 108.805 162.369 114.379 157.236C120.021 152.035 127.04 149.434 135.435 149.434C144.999 149.434 152.018 152.788 156.491 159.495C158.83 163.054 160 166.955 160 171.198ZM138.222 174.175C140.836 174.175 142.144 173.08 142.144 170.89C142.144 169.316 141.525 168.05 140.286 167.092C139.116 166.133 137.396 165.654 135.125 165.654C132.923 165.654 130.721 166.578 128.519 168.426C126.318 170.274 125.217 172.122 125.217 174.175H138.222Z" fill="#4C4C4C"/>
<path d="M34.1641 43.4254L27.4552 43.0148V179.091C27.4552 180.939 27.7304 182.274 28.2809 183.095C28.5328 183.471 28.8061 184.27 30.3887 184.27C30.712 184.27 31.666 184.339 32.4917 184.475C33.3174 184.612 34.3152 184.852 35.2785 185.399C36.8612 186.289 37.6525 188.582 37.6525 192.278C37.6525 196.589 36.6891 199.224 34.7625 200.183C33.7303 200.662 32.8014 200.97 31.9757 201.106C31.2187 201.175 31.6961 201.209 30.1823 201.209C23.0261 201.209 18.7851 199.658 15.0694 196.441C11.3536 193.224 9.49577 187.783 9.49577 180.118V43.0148C8.18838 43.2201 6.77778 43.3228 5.26396 43.3228C3.75014 43.3228 2.47716 42.741 1.44501 41.5775C0.481669 40.4141 0 38.4293 0 35.6232C0 32.8172 0.172025 30.7982 0.516074 29.5663C0.860124 28.2659 1.34179 27.3419 1.96108 26.7944C3.06204 25.9047 4.43824 25.4598 6.08968 25.4598L9.49577 25.8705V15.2964C9.49577 13.7223 9.53017 12.5588 9.59898 11.806C9.7366 11.0531 10.0807 10.2318 10.6311 9.34211C11.5257 7.63111 14.1748 6.7756 18.5787 6.7756C23.2577 6.7756 26.0446 8.04175 26.9391 10.574C27.2831 11.6691 27.4552 13.4143 27.4552 15.8097V25.8705C30.4828 25.5967 32.7535 25.4598 34.2673 25.4598C35.85 25.4598 37.0197 25.5283 37.7766 25.6652C38.6024 25.7336 39.5313 26.0416 40.5634 26.5891C42.3525 27.4788 43.247 30.1138 43.247 34.494C43.247 38.8057 42.3181 41.4407 40.4602 42.3988C39.4281 42.8779 38.4991 43.1859 37.6734 43.3228C36.9165 43.3912 35.7467 43.4254 34.1641 43.4254Z" fill="white"/>
<path d="M54.4483 34.2886C54.4483 32.7145 54.4827 31.551 54.5516 30.7982C54.6892 29.9769 54.9988 29.053 55.4805 28.0263C56.4438 26.2469 59.1274 25.3572 63.5313 25.3572C66.8341 25.3572 69.1737 25.9389 70.5499 27.1024C71.7196 28.0606 72.3389 29.532 72.4077 31.5168C72.4765 32.2012 72.5109 33.1936 72.5109 34.494V70.4252C72.5109 71.9993 72.4421 73.197 72.3045 74.0183C72.2357 74.7711 71.9261 75.6608 71.3756 76.6875C70.481 78.4669 67.8319 79.3566 63.428 79.3566C59.093 79.3566 56.4438 78.4327 55.4805 76.5848C54.9988 75.5582 54.6892 74.6685 54.5516 73.9156C54.4827 73.1628 54.4483 71.9651 54.4483 70.3225V34.2886ZM71.3756 15.2964C70.8939 16.2546 69.9994 16.939 68.692 17.3496C67.3846 17.7603 65.63 17.9656 63.428 17.9656C61.2949 17.9656 59.5747 17.7603 58.2673 17.3496C56.9599 16.939 56.031 16.2204 55.4805 15.1938C54.9988 14.1672 54.6892 13.2774 54.5516 12.5246C54.4827 11.7033 54.4483 10.5056 54.4483 8.93147C54.4483 7.35734 54.4827 6.19386 54.5516 5.44101C54.6892 4.61973 54.9988 3.73 55.4805 2.77184C56.4438 0.923946 59.1274 0 63.5313 0C67.8663 0 70.481 0.923946 71.3756 2.77184C71.9261 3.79845 72.2357 4.72239 72.3045 5.54367C72.4421 6.29652 72.5109 7.46001 72.5109 9.03413C72.5109 10.6083 72.4421 11.806 72.3045 12.6273C72.2357 13.3801 71.9261 14.2698 71.3756 15.2964Z" fill="white"/>
<path d="M97.5716 52.2409C97.5716 55.1154 98.535 57.3739 100.462 59.0165C102.388 60.5906 104.418 61.3777 106.551 61.3777C108.753 61.3777 110.783 60.7617 112.641 59.5298C114.568 58.2294 116.116 57.5792 117.286 57.5792C119.35 57.5792 121.862 59.3929 124.82 63.0202C126.403 65.005 127.194 66.7845 127.194 68.3586C127.194 70.9593 125.302 73.389 121.517 75.6475C117.595 78.3851 112.779 79.7539 107.067 79.7539C100.668 79.7539 94.5096 77.4612 88.5919 72.8757C85.7707 70.6856 83.4656 67.7768 81.6765 64.1495C79.8875 60.4537 78.9929 56.4157 78.9929 52.0355C78.9929 47.5869 79.8875 43.5832 81.6765 40.0243C83.4656 36.3969 85.7707 33.4882 88.5919 31.2981C94.3031 26.781 100.393 24.5225 106.861 24.5225C109.476 24.5225 112.022 24.8989 114.499 25.6518C116.976 26.3362 118.799 27.0206 119.969 27.705L121.621 28.7316C122.859 29.5529 123.823 30.2031 124.511 30.6822C126.3 32.051 127.194 33.6251 127.194 35.4045C127.194 37.1155 126.472 39.0661 125.027 41.2562C122.55 45.0204 120.176 46.9025 117.905 46.9025C116.598 46.9025 114.74 46.1497 112.331 44.644C111.093 43.4805 109.304 42.8988 106.964 42.8988C104.693 42.8988 102.56 43.72 100.565 45.3626C98.5693 47.0052 97.5716 49.2979 97.5716 52.2409Z" fill="white"/>
<path d="M76.2658 91.9582C76.6786 88.1256 79.3966 86.2092 84.4198 86.2092C87.1033 86.2092 89.0988 86.4146 90.4062 86.8252C91.7136 87.2358 92.6081 87.9545 93.0898 88.9811C93.6403 90.0077 93.9499 90.9316 94.0187 91.7529C94.1564 92.5057 94.2252 93.6692 94.2252 95.2434V131.175C94.2252 132.749 94.1564 133.946 94.0187 134.768C93.9499 135.521 93.6747 136.41 93.193 137.437C92.2297 139.216 89.8557 140.106 86.0712 140.106C82.3555 140.106 79.8439 139.661 78.5365 138.771C77.2979 137.813 76.5754 136.444 76.369 134.665C73.823 138.292 69.5568 140.106 63.5703 140.106C57.6527 140.106 52.1479 137.403 47.056 131.996C41.964 126.589 39.4181 120.327 39.4181 113.209C39.4181 106.023 41.964 99.7604 47.056 94.4221C52.2167 89.0153 57.8591 86.3119 63.9832 86.3119C66.3228 86.3119 68.4559 86.7225 70.3825 87.5438C72.3092 88.3651 73.651 89.1522 74.4079 89.905C75.1648 90.5894 75.7841 91.2738 76.2658 91.9582ZM57.4807 113.312C57.4807 115.57 58.3752 117.623 60.1643 119.471C61.9533 121.251 64.1208 122.14 66.6668 122.14C69.2128 122.14 71.3115 121.216 72.9629 119.369C74.6832 117.521 75.5433 115.502 75.5433 113.312C75.5433 111.053 74.7176 108.966 73.0661 107.049C71.4835 105.133 69.316 104.175 66.5636 104.175C63.88 104.175 61.6781 105.133 59.9578 107.049C58.3064 108.966 57.4807 111.053 57.4807 113.312Z" fill="white"/>
<path d="M119.2 113.261C119.2 116.135 120.163 118.394 122.09 120.036C124.016 121.611 126.046 122.398 128.179 122.398C130.381 122.398 132.411 121.782 134.269 120.55C136.196 119.249 137.744 118.599 138.914 118.599C140.978 118.599 143.49 120.413 146.448 124.04C148.031 126.025 148.822 127.804 148.822 129.379C148.822 131.979 146.93 134.409 143.146 136.667C139.223 139.405 134.407 140.774 128.695 140.774C122.296 140.774 116.138 138.481 110.22 133.896C107.399 131.706 105.094 128.797 103.305 125.169C101.516 121.474 100.621 117.436 100.621 113.056C100.621 108.607 101.516 104.603 103.305 101.044C105.094 97.4169 107.399 94.5082 110.22 92.3181C115.931 87.801 122.021 85.5425 128.489 85.5425C131.104 85.5425 133.65 85.9189 136.127 86.6718C138.604 87.3562 140.428 88.0406 141.597 88.725L143.249 89.7516C144.487 90.5729 145.451 91.2231 146.139 91.7021C147.928 93.071 148.822 94.6451 148.822 96.4245C148.822 98.1355 148.1 100.086 146.655 102.276C144.178 106.04 141.804 107.923 139.533 107.923C138.226 107.923 136.368 107.17 133.959 105.664C132.721 104.5 130.932 103.919 128.592 103.919C126.322 103.919 124.188 104.74 122.193 106.383C120.197 108.025 119.2 110.318 119.2 113.261Z" fill="white"/>
<path d="M39.4181 174.266C39.4181 166.053 42.3081 159.278 48.0881 153.94C53.8682 148.601 60.4739 145.932 67.9054 145.932C75.3368 145.932 81.9082 148.601 87.6194 153.94C93.3306 159.209 96.1863 165.951 96.1863 174.164C96.1863 179.844 94.7068 184.909 91.748 189.357C88.7892 193.738 85.1767 196.989 80.9104 199.11C76.713 201.163 72.3436 202.19 67.8022 202.19C63.2607 202.19 58.8569 201.095 54.5907 198.905C50.3244 196.646 46.7119 193.361 43.7531 189.049C40.8631 184.669 39.4181 179.742 39.4181 174.266ZM60.99 181.658C63.1919 183.3 65.4282 184.122 67.6989 184.122C69.9697 184.122 72.2404 183.266 74.5111 181.555C76.7819 179.844 77.9172 177.312 77.9172 173.958C77.9172 170.605 76.8507 168.107 74.7176 166.464C72.5844 164.822 70.2793 164 67.8022 164C65.325 164 63.0199 164.856 60.8868 166.567C58.7537 168.278 57.6871 170.81 57.6871 174.164C57.6871 177.449 58.7881 179.947 60.99 181.658Z" fill="white"/>
<path d="M156.581 167.799C156.581 171.974 155.515 175.088 153.382 177.141C151.317 179.126 149.012 180.118 146.466 180.118H122.004C122.004 182.034 123.14 183.643 125.41 184.943C127.681 186.243 129.952 186.894 132.222 186.894C136.213 186.894 139.344 186.483 141.615 185.662L142.75 185.251C144.402 184.498 145.778 184.122 146.879 184.122C149.081 184.122 150.973 185.662 152.556 188.741C153.45 190.589 153.898 192.164 153.898 193.464C153.898 199.555 146.569 202.601 131.913 202.601C126.821 202.601 122.279 201.745 118.288 200.034C114.366 198.255 111.304 195.928 109.102 193.053C104.767 187.51 102.6 181.316 102.6 174.472C102.6 165.848 105.387 158.97 110.96 153.837C116.603 148.635 123.621 146.035 132.016 146.035C141.581 146.035 148.599 149.388 153.072 156.095C155.411 159.654 156.581 163.555 156.581 167.799ZM134.803 170.776C137.418 170.776 138.725 169.681 138.725 167.491C138.725 165.917 138.106 164.65 136.867 163.692C135.697 162.734 133.977 162.255 131.706 162.255C129.504 162.255 127.303 163.179 125.101 165.027C122.899 166.875 121.798 168.723 121.798 170.776H134.803Z" fill="white"/>
</svg>
